<?xml version="1.0" encoding="utf-8"?>
<!-- Generator: Adobe Illustrator 18.1.1, SVG Export Plug-In . SVG Version: 6.00 Build 0)  -->
<svg version="1.1" id="Layer_2" xmlns="http://www.w3.org/2000/svg" xmlns:xlink="http://www.w3.org/1999/xlink" x="0px" y="0px"
	 viewBox="0 0 80 15" enable-background="new 0 0 80 15" xml:space="preserve">
<g>
	<rect x="6" y="5" fill="#333333" width="2" height="1"/>
	<rect x="5" y="6" fill="#333333" width="1" height="3"/>
	<rect x="8" y="6" fill="#333333" width="1" height="3"/>
	<polygon fill="#333333" points="12,8 14,8 14,7 12,7 12,6 14,6 14,5 12,5 11,5 11,10 12,10 	"/>
	<rect x="6" y="9" fill="#333333" width="2" height="1"/>
	<rect x="14" y="6" fill="#333333" width="1" height="1"/>
	<polygon fill="#333333" points="20,10 20,9 18,9 18,8 20,8 20,7 18,7 18,6 20,6 20,5 18,5 17,5 17,10 18,10 	"/>
	<polygon fill="#333333" points="23,7 24,7 24,6 23,6 23,5 22,5 22,10 23,10 	"/>
	<rect x="24" y="7" fill="#333333" width="1" height="1"/>
	<polygon fill="#333333" points="26,9 26,10 27,10 27,5 26,5 26,8 25,8 25,9 	"/>
	<rect x="42" y="6" fill="#333333" width="2" height="3"/>
	<path fill="#333333" d="M78,2H31v11h47V2z M39,7h-1V6h-2v3h2V8h1v1h-1v1h-2V9h-1V6h1V5h2v1h1V7z M45,9h-1v1h-2V9h-1V6h1V5h2v1h1V9z
		 M52,10h-1V9h-1V8h-1V7h-1v3h-1V5h1v1h1v1h1v1h1V5h1V10z M57,6h-1v4h-1V6h-1V5h3V6z M62,6h-2v1h2v1h-2v1h2v1h-2h-1V5h1h2V6z M69,10
		h-1V9h-1V8h-1V7h-1v3h-1V5h1v1h1v1h1v1h1V5h1V10z M74,6h-1v4h-1V6h-1V5h3V6z"/>
	<path fill="#333333" d="M0,0v1v13v1h80v-1V1V0H0z M79,14H1V1h78V14z"/>
</g>
</svg>
