<svg xmlns="http://www.w3.org/2000/svg" viewBox="0 0 100.19 59.96"><defs><style>.a{fill:#f9b233;}.b{fill:#ffc900;}.c{fill:#005a9c;}.d{fill:#ef7c00;}</style></defs><title>share_psi_icon</title><polygon class="a" points="26.91 12.16 26.91 0.02 0 29.99 26.91 59.96 26.91 47.73 11.46 29.94 26.91 12.16"/><polygon class="a" points="74.65 0 74.65 11.7 90.59 30.03 74.68 48.35 74.65 48.33 74.65 59.96 100.19 29.93 74.65 0"/><path class="b" d="M44.73,30"/><polygon class="b" points="26.91 0.02 26.88 12.2 26.91 12.16 32.77 18.02 38.84 12.1 26.91 0.02"/><polygon class="c" points="50.62 24.04 38.84 12.1 32.77 18.02 44.7 29.95 50.62 24.04"/><polygon class="d" points="74.68 48.34 74.68 48.35 68.06 41.71 62.33 47.6 74.65 59.96 74.68 48.34"/><polyline class="c" points="50.7 35.93 56.49 30.09 68.06 41.71"/><polygon class="c" points="56.49 30.09 50.7 35.93 62.33 47.6 68.06 41.71 56.49 30.09"/><polygon class="b" points="74.68 11.74 74.65 0.02 62.32 12.34 68.11 18.37 74.68 11.74"/><polygon class="b" points="50.63 24.02 50.62 24.04 56.49 30.09 50.62 24.04 50.63 24.02"/><polygon class="c" points="62.32 12.34 50.63 24.02 50.62 24.04 56.49 30.09 68.11 18.37 62.32 12.34"/><polygon class="d" points="38.75 47.97 32.79 41.82 26.88 47.69 26.91 59.96 38.94 47.78 38.75 47.97"/><polygon class="c" points="38.94 47.78 50.7 35.93 44.7 29.95 32.79 41.82 38.75 47.97 38.94 47.78"/></svg>